<svg xmlns="http://www.w3.org/2000/svg" xml:space="preserve" version="1.1" style="shape-rendering:geometricPrecision; text-rendering:geometricPrecision; image-rendering:optimizeQuality; fill-rule:evenodd; clip-rule:evenodd"
viewBox="0 0 7096 7096" xmlns:xlink="http://www.w3.org/1999/xlink">
<style>
	.fil0{
		fill: white;
	}
</style>
 <g id="Layer_x0020_1">
  <metadata id="CorelCorpID_0Corel-Layer"/>
  <g id="_367544904">
   <path class="fil0" d="M2411 8l2274 0c1322,0 2403,1081 2403,2403l0 2274c0,1322 -1081,2403 -2403,2403l-2274 0c-1322,0 -2403,-1081 -2403,-2403l0 -2274c0,-1322 1081,-2403 2403,-2403zm235 732l1804 0c1048,0 1906,858 1906,1906l0 1804c0,1048 -858,1906 -1906,1906l-1804 0c-1048,0 -1906,-858 -1906,-1906l0 -1804c0,-1048 858,-1906 1906,-1906z"/>
   <path class="fil0" d="M3548 1845c940,0 1703,763 1703,1703 0,940 -763,1703 -1703,1703 -940,0 -1703,-763 -1703,-1703 0,-940 763,-1703 1703,-1703zm0 620c598,0 1083,485 1083,1083 0,598 -485,1083 -1083,1083 -598,0 -1083,-485 -1083,-1083 0,-598 485,-1083 1083,-1083z"/>
   <circle class="fil0" cx="5264" cy="1793" r="326"/>
  </g>
 </g>
</svg>