<svg xmlns="http://www.w3.org/2000/svg" xml:space="preserve" width="122.412mm" height="88.592mm" version="1.1" style="shape-rendering:geometricPrecision; text-rendering:geometricPrecision; image-rendering:optimizeQuality; fill-rule:evenodd; clip-rule:evenodd"
viewBox="0 0 8756 6337" xmlns:xlink="http://www.w3.org/1999/xlink">
<style>
	.fil0{
		fill: white;
	}
</style>
 <g id="Layer_x0020_1">
  <metadata id="CorelCorpID_0Corel-Layer"/>
  <g id="_363115672">
   <path class="fil0" d="M2153 7l4450 0c1180,0 2146,966 2146,2146l0 2031c0,1180 -966,2146 -2146,2146l-4450 0c-1180,0 -2146,-966 -2146,-2146l0 -2031c0,-1180 966,-2146 2146,-2146zm272 743l3907 0c903,0 1641,739 1641,1642l0 1553c0,903 -738,1642 -1641,1642l-3907 0c-904,0 -1642,-739 -1642,-1642l0 -1553c0,-903 738,-1642 1642,-1642z"/>
   <path class="fil0" d="M6200 3168l-1450 707 -1451 707 0 -1414 0 -1413 1451 707 1450 706zm-920 0l-718 350 -718 350 0 -700 0 -699 718 350 718 349z"/>
  </g>
 </g>
</svg>